<?xml version="1.0" standalone="no"?>
<!DOCTYPE svg PUBLIC "-//W3C//DTD SVG 20010904//EN"
 "http://www.w3.org/TR/2001/REC-SVG-20010904/DTD/svg10.dtd">
<svg version="1.0" xmlns="http://www.w3.org/2000/svg"
 width="700.000000pt" height="700.000000pt" viewBox="0 0 700.000000 700.000000"
 preserveAspectRatio="xMidYMid meet">
<metadata>
Created by potrace 1.14, written by Peter Selinger 2001-2017
</metadata>
<g transform="translate(0.000000,700.000000) scale(0.100000,-0.100000)"
fill="#000000" stroke="none">
<path d="M6150 6983 c-127 -16 -231 -36 -365 -70 -55 -13 -107 -26 -115 -28
-83 -18 -405 -136 -533 -194 -37 -17 -70 -31 -73 -31 -7 0 -276 -135 -344
-173 -492 -272 -928 -623 -1320 -1062 -96 -107 -584 -764 -740 -995 -6 -8 -36
-51 -67 -95 -130 -183 -567 -847 -580 -882 -4 -10 207 -228 708 -729 393 -393
718 -714 723 -714 21 0 581 366 906 594 319 222 882 635 1000 732 185 154 406
372 555 548 28 33 64 75 80 95 17 20 46 56 65 81 19 25 37 47 40 50 24 22 305
439 323 480 4 8 18 33 32 55 14 22 28 47 32 55 4 8 31 60 60 115 68 126 172
354 229 503 43 109 128 374 138 424 2 12 11 50 19 83 16 62 23 95 33 155 3 19
7 42 9 50 2 8 7 38 10 65 4 28 9 61 11 75 10 49 12 366 3 430 -11 85 -37 192
-61 257 -18 49 -22 53 -76 74 -116 43 -226 60 -417 63 -110 2 -221 -2 -285
-11z m-753 -1218 c234 -78 384 -278 397 -529 17 -345 -292 -632 -639 -594
-127 15 -233 62 -327 147 -307 278 -229 781 148 952 137 62 281 71 421 24z
m-1238 -1255 c88 -17 157 -54 225 -122 74 -75 114 -150 129 -248 22 -141 -27
-287 -129 -386 -223 -218 -590 -148 -721 136 -34 74 -47 195 -30 278 30 138
142 268 277 320 86 33 160 39 249 22z"/>
<path d="M1300 4844 c-120 -16 -237 -53 -319 -101 -73 -43 -259 -221 -343
-328 -96 -124 -213 -296 -309 -455 -85 -142 -277 -504 -313 -592 l-16 -36 58
-33 c91 -51 109 -61 273 -157 86 -50 161 -93 167 -94 6 -2 36 39 67 91 136
224 316 438 455 539 245 179 465 175 664 -11 l56 -54 42 66 c23 36 84 131 136
211 149 227 229 350 415 637 98 151 101 134 -28 177 -165 55 -416 115 -550
131 -33 4 -71 9 -85 11 -69 11 -286 9 -370 -2z"/>
<path d="M1879 2828 c-336 -37 -717 -344 -909 -733 -80 -163 -103 -240 -135
-455 -6 -40 -17 -114 -20 -130 -2 -8 -6 -42 -9 -75 -4 -33 -9 -71 -11 -85 -4
-31 -13 -107 -20 -180 -3 -30 -8 -73 -10 -95 -5 -48 -18 -246 -19 -295 -1 -34
0 -35 34 -34 44 1 218 13 288 19 28 3 73 7 100 9 66 7 303 35 327 40 11 2 45
7 75 11 30 4 64 9 75 11 11 2 38 6 60 9 22 3 47 7 55 10 8 2 29 7 45 10 56 9
70 13 145 40 249 90 487 265 654 480 156 200 227 377 227 563 l0 86 -88 88
c-48 48 -90 88 -93 88 -3 0 -25 -41 -49 -91 -170 -356 -449 -558 -810 -585
-91 -7 -218 2 -241 16 -12 8 -15 39 -15 162 1 127 5 168 24 242 74 286 252
495 540 637 58 28 108 54 110 56 3 2 -35 44 -83 92 -84 84 -92 89 -136 93 -25
1 -75 0 -111 -4z"/>
<path d="M4534 2337 c-71 -46 -181 -117 -244 -158 -123 -81 -283 -185 -526
-342 l-150 -98 53 -56 c123 -129 168 -282 129 -429 -59 -221 -297 -471 -657
-689 -52 -31 -93 -62 -91 -68 2 -6 20 -40 41 -76 68 -116 84 -145 164 -284 73
-126 80 -135 101 -127 33 12 272 132 374 187 162 87 494 291 547 335 6 5 35
27 65 49 172 127 335 289 403 401 47 78 84 195 101 315 12 87 13 296 2 373 -2
19 -7 58 -11 85 -9 67 -13 92 -19 113 -3 9 -7 33 -10 52 -10 59 -15 81 -46
195 -17 61 -32 117 -34 125 -5 18 -58 174 -61 178 -1 1 -60 -35 -131 -81z"/>
</g>
</svg>
